MerriweatherSans-Regular.ufo
<glyph name="exclam" format="1">
  <advance width="602"/>
  <unicode hex="0021"/>
  <outline>
    <contour>
      <point x="210" y="506" type="line"/>
      <point x="406" y="506" type="line"/>
      <point x="430" y="1780" type="line"/>
      <point x="182" y="1780" type="line"/>
    </contour>
    <contour>
      <point x="293" y="-22" type="curve" smooth="yes"/>
      <point x="379" y="-22"/>
      <point x="457" y="54"/>
      <point x="455" y="153" type="curve" smooth="yes"/>
      <point x="452" y="234"/>
      <point x="403" y="304"/>
      <point x="307" y="304" type="curve" smooth="yes"/>
      <point x="225" y="304"/>
      <point x="144" y="225"/>
      <point x="147" y="130" type="curve" smooth="yes"/>
      <point x="149" y="42"/>
      <point x="216" y="-22"/>
    </contour>
  </outline>
</glyph>
<glyph name="dollar" format="1">
  <advance width="1372"/>
  <unicode hex="0024"/>
  <outline>
    <contour>
      <point x="633" y="1504" type="line"/>
      <point x="796" y="1504" type="line"/>
      <point x="798" y="1762" type="line"/>
      <point x="635" y="1762" type="line"/>
    </contour>
    <contour>
      <point x="592" y="-237" type="line"/>
      <point x="755" y="-237" type="line"/>
      <point x="757" y="15" type="line"/>
      <point x="594" y="15" type="line"/>
    </contour>
    <component base="S" xOffset="107"/>
  </outline>
</glyph>
<glyph name="comma" format="1">
  <advance width="602"/>
  <unicode hex="002C"/>
  <outline>
    <contour>
      <point x="151" y="-408" type="line"/>
      <point x="225" y="-500" type="line"/>
      <point x="367" y="-447"/>
      <point x="490" y="-273"/>
      <point x="490" y="-54" type="curve" smooth="yes"/>
      <point x="490" y="62"/>
      <point x="439" y="219"/>
      <point x="299" y="271" type="curve"/>
      <point x="160" y="140" type="line"/>
      <point x="160" y="77" type="line"/>
      <point x="223" y="70"/>
      <point x="282" y="-40"/>
      <point x="282" y="-124" type="curve" smooth="yes"/>
      <point x="282" y="-238"/>
      <point x="225" y="-345"/>
      <point x="151" y="-382" type="curve"/>
    </contour>
  </outline>
</glyph>
<glyph name="seven" format="1">
  <advance width="1241"/>
  <unicode hex="0037"/>
  <outline>
    <contour>
      <point x="340" y="-267" type="curve"/>
      <point x="575" y="-335" type="line"/>
      <point x="1146" y="1213" type="line"/>
      <point x="1100" y="1271" type="line"/>
      <point x="151" y="1271" type="line"/>
      <point x="150" y="1093" type="line"/>
      <point x="904" y="1091" type="line"/>
      <point x="736" y="644"/>
      <point x="548" y="175"/>
    </contour>
  </outline>
</glyph>
<glyph name="eight" format="1">
  <advance width="1307"/>
  <unicode hex="0038"/>
  <outline>
    <contour>
      <point x="675" y="-16" type="curve" smooth="yes"/>
      <point x="944" y="-16"/>
      <point x="1180" y="121"/>
      <point x="1177" y="400" type="curve" smooth="yes"/>
      <point x="1173" y="812"/>
      <point x="414" y="856"/>
      <point x="414" y="1207" type="curve" smooth="yes"/>
      <point x="414" y="1336"/>
      <point x="526" y="1412"/>
      <point x="668" y="1412" type="curve" smooth="yes"/>
      <point x="825" y="1412"/>
      <point x="920" y="1322"/>
      <point x="914" y="1187" type="curve" smooth="yes"/>
      <point x="911" y="1065"/>
      <point x="840" y="930"/>
      <point x="682" y="881" type="curve"/>
      <point x="802" y="787" type="line"/>
      <point x="1024" y="878"/>
      <point x="1116" y="1064"/>
      <point x="1116" y="1216" type="curve" smooth="yes"/>
      <point x="1116" y="1425"/>
      <point x="937" y="1565"/>
      <point x="675" y="1565" type="curve" smooth="yes"/>
      <point x="422" y="1565"/>
      <point x="211" y="1440"/>
      <point x="211" y="1194" type="curve" smooth="yes"/>
      <point x="211" y="706"/>
      <point x="959" y="727"/>
      <point x="959" y="373" type="curve" smooth="yes"/>
      <point x="959" y="224"/>
      <point x="822" y="138"/>
      <point x="683" y="138" type="curve" smooth="yes"/>
      <point x="464" y="138"/>
      <point x="363" y="237"/>
      <point x="363" y="402" type="curve" smooth="yes"/>
      <point x="363" y="552"/>
      <point x="478" y="677"/>
      <point x="635" y="731" type="curve"/>
      <point x="505" y="824" type="line"/>
      <point x="249" y="715"/>
      <point x="152" y="543"/>
      <point x="152" y="385" type="curve" smooth="yes"/>
      <point x="152" y="94"/>
      <point x="422" y="-16"/>
    </contour>
  </outline>
</glyph>
<glyph name="less" format="1">
  <advance width="1368"/>
  <unicode hex="003C"/>
  <outline>
    <contour>
      <point x="168" y="696" type="line"/>
      <point x="1134" y="252" type="line"/>
      <point x="1134" y="460" type="line"/>
      <point x="378" y="784" type="line"/>
      <point x="378" y="762" type="line"/>
      <point x="1134" y="1091" type="line"/>
      <point x="1134" y="1296" type="line"/>
      <point x="168" y="850" type="line"/>
    </contour>
  </outline>
</glyph>
<glyph name="question" format="1">
  <advance width="1047"/>
  <unicode hex="003F"/>
  <outline>
    <contour>
      <point x="364" y="494" type="curve"/>
      <point x="531" y="494" type="line"/>
      <point x="501" y="594"/>
      <point x="478" y="658"/>
      <point x="487" y="749" type="curve" smooth="yes"/>
      <point x="502" y="925"/>
      <point x="870" y="958"/>
      <point x="922" y="1254" type="curve" smooth="yes"/>
      <point x="981" y="1547"/>
      <point x="819" y="1839"/>
      <point x="337" y="1839" type="curve" smooth="yes"/>
      <point x="238" y="1839"/>
      <point x="143" y="1813"/>
      <point x="121" y="1797" type="curve"/>
      <point x="121" y="1637" type="line"/>
      <point x="145" y="1643"/>
      <point x="203" y="1654"/>
      <point x="302" y="1654" type="curve" smooth="yes"/>
      <point x="601" y="1654"/>
      <point x="768" y="1506"/>
      <point x="703" y="1243" type="curve" smooth="yes"/>
      <point x="670" y="1065"/>
      <point x="267" y="988"/>
      <point x="275" y="770" type="curve" smooth="yes"/>
      <point x="279" y="653"/>
      <point x="320" y="548"/>
    </contour>
    <contour>
      <point x="476" y="-22" type="curve" smooth="yes"/>
      <point x="560" y="-22"/>
      <point x="638" y="52"/>
      <point x="635" y="149" type="curve" smooth="yes"/>
      <point x="632" y="227"/>
      <point x="584" y="295"/>
      <point x="491" y="295" type="curve" smooth="yes"/>
      <point x="411" y="295"/>
      <point x="331" y="218"/>
      <point x="333" y="126" type="curve" smooth="yes"/>
      <point x="336" y="40"/>
      <point x="403" y="-22"/>
    </contour>
  </outline>
</glyph>
<glyph name="A" format="1">
  <advance width="1407"/>
  <unicode hex="0041"/>
  <outline>
    <contour>
      <point x="257" y="0" type="line"/>
      <point x="668" y="1160" type="line"/>
      <point x="712" y="1302" type="line"/>
      <point x="755" y="1160" type="line"/>
      <point x="1145" y="0" type="line"/>
      <point x="1386" y="0" type="line"/>
      <point x="818" y="1538" type="line"/>
      <point x="603" y="1538" type="line"/>
      <point x="21" y="0" type="line"/>
    </contour>
    <contour>
      <point x="301" y="385" type="line"/>
      <point x="1083" y="385" type="line"/>
      <point x="1041" y="551" type="line"/>
      <point x="343" y="551" type="line"/>
    </contour>
    <contour>
      <point x="680" y="-170" type="move" name="btm"/>
    </contour>
    <contour>
      <point x="702" y="1700" type="move" name="top"/>
    </contour>
  </outline>
</glyph>
<glyph name="B" format="1">
  <advance width="1339"/>
  <unicode hex="0042"/>
  <outline>
    <contour>
      <point x="194" y="0" type="line"/>
      <point x="305" y="0" type="line"/>
      <point x="376" y="-5"/>
      <point x="517" y="-14"/>
      <point x="632" y="-14" type="curve" smooth="yes"/>
      <point x="1106" y="-14"/>
      <point x="1247" y="181"/>
      <point x="1247" y="456" type="curve" smooth="yes"/>
      <point x="1247" y="643"/>
      <point x="1099" y="815"/>
      <point x="913" y="823" type="curve"/>
      <point x="1079" y="867"/>
      <point x="1144" y="1038"/>
      <point x="1144" y="1177" type="curve" smooth="yes"/>
      <point x="1144" y="1394"/>
      <point x="990" y="1537"/>
      <point x="648" y="1537" type="curve" smooth="yes"/>
      <point x="498" y="1537"/>
      <point x="398" y="1522"/>
      <point x="298" y="1522" type="curve"/>
      <point x="194" y="1523" type="line"/>
    </contour>
    <contour>
      <point x="416" y="867" type="curve"/>
      <point x="416" y="1367" type="line"/>
      <point x="444" y="1377"/>
      <point x="567" y="1380"/>
      <point x="607" y="1380" type="curve" smooth="yes"/>
      <point x="813" y="1380"/>
      <point x="928" y="1305"/>
      <point x="928" y="1145" type="curve" smooth="yes"/>
      <point x="928" y="956"/>
      <point x="822" y="862"/>
      <point x="693" y="862" type="curve" smooth="yes"/>
      <point x="612" y="862"/>
      <point x="496" y="855"/>
    </contour>
    <contour>
      <point x="416" y="171" type="curve"/>
      <point x="416" y="698" type="line"/>
      <point x="478" y="706"/>
      <point x="587" y="703"/>
      <point x="668" y="703" type="curve" smooth="yes"/>
      <point x="910" y="703"/>
      <point x="1021" y="620"/>
      <point x="1021" y="430" type="curve" smooth="yes"/>
      <point x="1021" y="217"/>
      <point x="884" y="148"/>
      <point x="658" y="148" type="curve" smooth="yes"/>
      <point x="583" y="148"/>
      <point x="451" y="149"/>
    </contour>
    <contour>
      <point x="710" y="-170" type="move" name="btm"/>
    </contour>
    <contour>
      <point x="660" y="1700" type="move" name="top"/>
    </contour>
  </outline>
</glyph>
<glyph name="C" format="1">
  <advance width="1313"/>
  <unicode hex="0043"/>
  <outline>
    <contour>
      <point x="95" y="753" type="curve" smooth="yes"/>
      <point x="95" y="292"/>
      <point x="374" y="-16"/>
      <point x="804" y="-16" type="curve" smooth="yes"/>
      <point x="993" y="-16"/>
      <point x="1100" y="29"/>
      <point x="1188" y="64" type="curve"/>
      <point x="1187" y="253" type="line"/>
      <point x="1134" y="206"/>
      <point x="969" y="160"/>
      <point x="813" y="160" type="curve" smooth="yes"/>
      <point x="503" y="160"/>
      <point x="316" y="412"/>
      <point x="316" y="768" type="curve" smooth="yes"/>
      <point x="316" y="1128"/>
      <point x="505" y="1357"/>
      <point x="814" y="1357" type="curve" smooth="yes"/>
      <point x="1043" y="1357"/>
      <point x="1137" y="1298"/>
      <point x="1166" y="1283" type="curve"/>
      <point x="1198" y="1481" type="line"/>
      <point x="1144" y="1494"/>
      <point x="1030" y="1538"/>
      <point x="799" y="1538" type="curve" smooth="yes"/>
      <point x="425" y="1538"/>
      <point x="95" y="1257"/>
    </contour>
    <contour>
      <point x="783" y="-170" type="move" name="btm"/>
    </contour>
    <contour>
      <point x="795" y="1700" type="move" name="top"/>
    </contour>
  </outline>
</glyph>
<glyph name="I" format="1">
  <advance width="640"/>
  <unicode hex="0049"/>
  <outline>
    <contour>
      <point x="207" y="0" type="line"/>
      <point x="433" y="0" type="line"/>
      <point x="433" y="1522" type="line"/>
      <point x="207" y="1522" type="line"/>
    </contour>
    <contour>
      <point x="327" y="-170" type="move" name="btm"/>
    </contour>
    <contour>
      <point x="321" y="1700" type="move" name="top"/>
    </contour>
  </outline>
</glyph>
<glyph name="J" format="1">
  <advance width="713"/>
  <unicode hex="004A"/>
  <outline>
    <contour>
      <point x="26" y="-332" type="line"/>
      <point x="195" y="-306"/>
      <point x="429" y="-175"/>
      <point x="475" y="86" type="curve" smooth="yes"/>
      <point x="502" y="232"/>
      <point x="494" y="414"/>
      <point x="494" y="613" type="curve" smooth="yes"/>
      <point x="494" y="1522" type="line"/>
      <point x="268" y="1522" type="line"/>
      <point x="268" y="608" type="line" smooth="yes"/>
      <point x="268" y="395"/>
      <point x="269" y="186"/>
      <point x="236" y="66" type="curve" smooth="yes"/>
      <point x="193" y="-91"/>
      <point x="64" y="-177"/>
      <point x="-42" y="-215" type="curve"/>
    </contour>
    <contour>
      <point x="269" y="-170" type="move" name="btm"/>
    </contour>
    <contour>
      <point x="376" y="1700" type="move" name="top"/>
    </contour>
  </outline>
</glyph>
<glyph name="N" format="1">
  <advance width="1556"/>
  <unicode hex="004E"/>
  <outline>
    <contour>
      <point x="193" y="0" type="line"/>
      <point x="398" y="0" type="line"/>
      <point x="398" y="952" type="line"/>
      <point x="378" y="1390" type="line"/>
      <point x="288" y="1390" type="line"/>
      <point x="526" y="967" type="line"/>
      <point x="1156" y="0" type="line"/>
      <point x="1363" y="0" type="line"/>
      <point x="1363" y="1522" type="line"/>
      <point x="1158" y="1522" type="line"/>
      <point x="1158" y="545" type="line"/>
      <point x="1180" y="134" type="line"/>
      <point x="1258" y="134" type="line"/>
      <point x="1048" y="517" type="line"/>
      <point x="397" y="1522" type="line"/>
      <point x="193" y="1522" type="line"/>
    </contour>
    <contour>
      <point x="743" y="-170" type="move" name="btm"/>
    </contour>
    <contour>
      <point x="792" y="1700" type="move" name="top"/>
    </contour>
  </outline>
</glyph>
<glyph name="O" format="1">
  <advance width="1569"/>
  <unicode hex="004F"/>
  <outline>
    <contour>
      <point x="778" y="-16" type="curve" smooth="yes"/>
      <point x="1167" y="-8"/>
      <point x="1459" y="254"/>
      <point x="1469" y="761" type="curve" smooth="yes"/>
      <point x="1478" y="1233"/>
      <point x="1212" y="1538"/>
      <point x="808" y="1538" type="curve" smooth="yes"/>
      <point x="422" y="1538"/>
      <point x="110" y="1280"/>
      <point x="100" y="772" type="curve" smooth="yes"/>
      <point x="91" y="311"/>
      <point x="357" y="-25"/>
    </contour>
    <contour>
      <point x="785" y="155" type="curve" smooth="yes"/>
      <point x="481" y="155"/>
      <point x="325" y="442"/>
      <point x="325" y="758" type="curve" smooth="yes"/>
      <point x="325" y="1175"/>
      <point x="544" y="1368"/>
      <point x="801" y="1368" type="curve" smooth="yes"/>
      <point x="1093" y="1368"/>
      <point x="1243" y="1091"/>
      <point x="1243" y="772" type="curve" smooth="yes"/>
      <point x="1243" y="370"/>
      <point x="1062" y="155"/>
    </contour>
    <contour>
      <point x="783" y="-170" type="move" name="btm"/>
    </contour>
    <contour>
      <point x="808" y="1700" type="move" name="top"/>
    </contour>
  </outline>
</glyph>
<glyph name="U" format="1">
  <advance width="1463"/>
  <unicode hex="0055"/>
  <outline>
    <contour>
      <point x="741" y="-16" type="curve" smooth="yes"/>
      <point x="1122" y="-16"/>
      <point x="1305" y="215"/>
      <point x="1305" y="630" type="curve" smooth="yes"/>
      <point x="1305" y="1522" type="line"/>
      <point x="1083" y="1522" type="line"/>
      <point x="1083" y="686" type="line" smooth="yes"/>
      <point x="1083" y="267"/>
      <point x="954" y="158"/>
      <point x="748" y="158" type="curve" smooth="yes"/>
      <point x="514" y="158"/>
      <point x="381" y="266"/>
      <point x="381" y="686" type="curve" smooth="yes"/>
      <point x="382" y="1522" type="line"/>
      <point x="159" y="1522" type="line"/>
      <point x="159" y="633" type="line" smooth="yes"/>
      <point x="158" y="221"/>
      <point x="323" y="-16"/>
    </contour>
    <contour>
      <point x="744" y="-170" type="move" name="btm"/>
    </contour>
    <contour>
      <point x="745" y="1700" type="move" name="top"/>
    </contour>
  </outline>
</glyph>
<glyph name="bracketleft" format="1">
  <advance width="837"/>
  <unicode hex="005B"/>
  <outline>
    <contour>
      <point x="185" y="60" type="line"/>
      <point x="185" y="-137"/>
      <point x="221" y="-191"/>
      <point x="375" y="-191" type="curve" smooth="yes"/>
      <point x="498" y="-191"/>
      <point x="567" y="-181"/>
      <point x="665" y="-167" type="curve"/>
      <point x="665" y="-51" type="line"/>
      <point x="397" y="-49" type="line"/>
      <point x="397" y="1593" type="line"/>
      <point x="665" y="1593" type="line"/>
      <point x="665" y="1713" type="line"/>
      <point x="567" y="1724"/>
      <point x="498" y="1737"/>
      <point x="375" y="1737" type="curve" smooth="yes"/>
      <point x="221" y="1737"/>
      <point x="185" y="1683"/>
      <point x="185" y="1486" type="curve" smooth="yes"/>
    </contour>
  </outline>
</glyph>
<glyph name="underscore" format="1">
  <advance width="1692"/>
  <unicode hex="005F"/>
  <outline>
    <contour>
      <point x="-40" y="-416" type="line"/>
      <point x="1732" y="-416" type="line"/>
      <point x="1732" y="-279" type="line"/>
      <point x="-40" y="-279" type="line"/>
    </contour>
  </outline>
</glyph>
<glyph name="grave" format="1">
  <advance width="595"/>
  <unicode hex="0060"/>
  <outline>
    <contour>
      <point x="545" y="1384" type="line"/>
      <point x="433" y="1512"/>
      <point x="302" y="1660"/>
      <point x="207" y="1783" type="curve"/>
      <point x="50" y="1648" type="line"/>
      <point x="116" y="1547"/>
      <point x="353" y="1331"/>
      <point x="434" y="1294" type="curve"/>
    </contour>
    <contour>
      <point x="435" y="1700" type="move" name="_top"/>
    </contour>
  </outline>
</glyph>
<glyph name="c" format="1">
  <advance width="1002"/>
  <unicode hex="0063"/>
  <outline>
    <contour>
      <point x="97" y="558" type="curve" smooth="yes"/>
      <point x="97" y="232"/>
      <point x="277" y="-16"/>
      <point x="598" y="-16" type="curve" smooth="yes"/>
      <point x="742" y="-16"/>
      <point x="878" y="27"/>
      <point x="948" y="92" type="curve"/>
      <point x="903" y="217" type="line"/>
      <point x="852" y="186"/>
      <point x="745" y="150"/>
      <point x="631" y="150" type="curve" smooth="yes"/>
      <point x="446" y="150"/>
      <point x="300" y="307"/>
      <point x="310" y="597" type="curve" smooth="yes"/>
      <point x="320" y="875"/>
      <point x="480" y="986"/>
      <point x="637" y="986" type="curve" smooth="yes"/>
      <point x="753" y="986"/>
      <point x="833" y="965"/>
      <point x="893" y="923" type="curve"/>
      <point x="928" y="1097" type="line"/>
      <point x="892" y="1121"/>
      <point x="791" y="1156"/>
      <point x="648" y="1156" type="curve" smooth="yes"/>
      <point x="281" y="1156"/>
      <point x="97" y="894"/>
    </contour>
    <contour>
      <point x="570" y="-170" type="move" name="btm"/>
    </contour>
    <contour>
      <point x="612" y="1700" type="move" name="top"/>
    </contour>
  </outline>
</glyph>
<glyph name="e" format="1">
  <advance width="1123"/>
  <unicode hex="0065"/>
  <outline>
    <contour>
      <point x="602" y="-16" type="curve" smooth="yes"/>
      <point x="739" y="-16"/>
      <point x="912" y="25"/>
      <point x="987" y="86" type="curve"/>
      <point x="945" y="212" type="line"/>
      <point x="889" y="179"/>
      <point x="737" y="150"/>
      <point x="661" y="150" type="curve" smooth="yes"/>
      <point x="475" y="150"/>
      <point x="326" y="234"/>
      <point x="313" y="502" type="curve" smooth="yes"/>
      <point x="300" y="877"/>
      <point x="430" y="1000"/>
      <point x="594" y="1000" type="curve" smooth="yes"/>
      <point x="794" y="1000"/>
      <point x="830" y="831"/>
      <point x="820" y="668" type="curve"/>
      <point x="248" y="668" type="line"/>
      <point x="228" y="522" type="line"/>
      <point x="1015" y="522" type="line"/>
      <point x="1026" y="573"/>
      <point x="1026" y="640"/>
      <point x="1026" y="726" type="curve" smooth="yes"/>
      <point x="1017" y="1011"/>
      <point x="833" y="1160"/>
      <point x="606" y="1156" type="curve" smooth="yes"/>
      <point x="272" y="1150"/>
      <point x="97" y="904"/>
      <point x="97" y="572" type="curve" smooth="yes"/>
      <point x="97" y="202"/>
      <point x="278" y="-16"/>
    </contour>
    <contour>
      <point x="604" y="-170" type="move" name="btm"/>
    </contour>
    <contour>
      <point x="597" y="1700" type="move" name="top"/>
    </contour>
  </outline>
</glyph>
<glyph name="f" format="1">
  <advance width="811"/>
  <unicode hex="0066"/>
  <outline>
    <contour>
      <point x="248" y="0" type="line"/>
      <point x="468" y="0" type="line"/>
      <point x="468" y="974" type="line"/>
      <point x="750" y="974" type="line"/>
      <point x="750" y="1140" type="line"/>
      <point x="468" y="1140" type="line"/>
      <point x="468" y="1289" type="line" smooth="yes"/>
      <point x="468" y="1434"/>
      <point x="536" y="1506"/>
      <point x="631" y="1506" type="curve" smooth="yes"/>
      <point x="720" y="1506"/>
      <point x="762" y="1500"/>
      <point x="803" y="1486" type="curve"/>
      <point x="803" y="1660" type="line"/>
      <point x="782" y="1668"/>
      <point x="723" y="1682"/>
      <point x="661" y="1682" type="curve" smooth="yes"/>
      <point x="478" y="1682"/>
      <point x="248" y="1580"/>
      <point x="248" y="1239" type="curve" smooth="yes"/>
      <point x="248" y="1140" type="line"/>
      <point x="75" y="1096" type="line"/>
      <point x="75" y="974" type="line"/>
      <point x="248" y="974" type="line"/>
    </contour>
    <contour>
      <point x="383" y="-170" type="move" name="btm"/>
    </contour>
    <contour>
      <point x="377" y="2056" type="move" name="top"/>
    </contour>
  </outline>
</glyph>
<glyph name="m" format="1">
  <advance width="1972"/>
  <unicode hex="006D"/>
  <outline>
    <contour>
      <point x="176" y="0" type="line"/>
      <point x="396" y="0" type="line"/>
      <point x="396" y="869" type="line"/>
      <point x="487" y="935"/>
      <point x="603" y="970"/>
      <point x="676" y="973" type="curve" smooth="yes"/>
      <point x="850" y="981"/>
      <point x="884" y="897"/>
      <point x="884" y="711" type="curve" smooth="yes"/>
      <point x="884" y="0" type="line"/>
      <point x="1104" y="0" type="line"/>
      <point x="1104" y="714" type="line" smooth="yes"/>
      <point x="1104" y="1048"/>
      <point x="1011" y="1163"/>
      <point x="765" y="1157" type="curve" smooth="yes"/>
      <point x="616" y="1153"/>
      <point x="458" y="1076"/>
      <point x="373" y="1018" type="curve"/>
      <point x="372" y="1138" type="line"/>
      <point x="176" y="1138" type="line"/>
    </contour>
    <contour>
      <point x="1092" y="869" type="line"/>
      <point x="1179" y="931"/>
      <point x="1294" y="970"/>
      <point x="1374" y="973" type="curve" smooth="yes"/>
      <point x="1550" y="981"/>
      <point x="1582" y="897"/>
      <point x="1582" y="711" type="curve" smooth="yes"/>
      <point x="1582" y="0" type="line"/>
      <point x="1802" y="0" type="line"/>
      <point x="1802" y="714" type="line" smooth="yes"/>
      <point x="1802" y="1048"/>
      <point x="1703" y="1162"/>
      <point x="1459" y="1157" type="curve" smooth="yes"/>
      <point x="1301" y="1154"/>
      <point x="1129" y="1075"/>
      <point x="1044" y="1005" type="curve"/>
    </contour>
    <contour>
      <point x="1001" y="-170" type="move" name="btm"/>
    </contour>
    <contour>
      <point x="996" y="1700" type="move" name="top"/>
    </contour>
  </outline>
</glyph>
<glyph name="p" format="1">
  <advance width="1238"/>
  <unicode hex="0070"/>
  <outline>
    <contour>
      <point x="166" y="-506" type="line"/>
      <point x="386" y="-506" type="line"/>
      <point x="386" y="-139" type="line"/>
      <point x="382" y="49" type="line"/>
      <point x="386" y="71" type="line"/>
      <point x="386" y="976" type="line"/>
      <point x="365" y="1002" type="line"/>
      <point x="365" y="1140" type="line"/>
      <point x="166" y="1140" type="line"/>
    </contour>
    <contour>
      <point x="570" y="-16" type="curve" smooth="yes"/>
      <point x="915" y="-16"/>
      <point x="1141" y="243"/>
      <point x="1141" y="612" type="curve" smooth="yes"/>
      <point x="1141" y="982"/>
      <point x="931" y="1156"/>
      <point x="691" y="1156" type="curve" smooth="yes"/>
      <point x="484" y="1156"/>
      <point x="396" y="1049"/>
      <point x="348" y="999" type="curve"/>
      <point x="386" y="890" type="line"/>
      <point x="434" y="928"/>
      <point x="521" y="983"/>
      <point x="630" y="983" type="curve" smooth="yes"/>
      <point x="816" y="983"/>
      <point x="920" y="856"/>
      <point x="917" y="582" type="curve" smooth="yes"/>
      <point x="913" y="296"/>
      <point x="774" y="144"/>
      <point x="591" y="144" type="curve" smooth="yes"/>
      <point x="494" y="144"/>
      <point x="428" y="158"/>
      <point x="386" y="195" type="curve"/>
      <point x="301" y="53" type="line"/>
      <point x="327" y="30"/>
      <point x="429" y="-16"/>
    </contour>
    <contour>
      <point x="632" y="-170" type="move" name="btm"/>
    </contour>
    <contour>
      <point x="700" y="1700" type="move" name="top"/>
    </contour>
  </outline>
</glyph>
<glyph name="t" format="1">
  <advance width="850"/>
  <unicode hex="0074"/>
  <outline>
    <contour>
      <point x="491" y="-16" type="curve" smooth="yes"/>
      <point x="606" y="-16"/>
      <point x="744" y="31"/>
      <point x="806" y="77" type="curve"/>
      <point x="768" y="203" type="line"/>
      <point x="730" y="183"/>
      <point x="632" y="160"/>
      <point x="573" y="160" type="curve" smooth="yes"/>
      <point x="464" y="160"/>
      <point x="447" y="178"/>
      <point x="447" y="397" type="curve" smooth="yes"/>
      <point x="447" y="974" type="line"/>
      <point x="769" y="974" type="line"/>
      <point x="769" y="1140" type="line"/>
      <point x="447" y="1140" type="line"/>
      <point x="447" y="1400" type="line"/>
      <point x="315" y="1400" type="line"/>
      <point x="287" y="1309"/>
      <point x="267" y="1237"/>
      <point x="249" y="1191" type="curve" smooth="yes"/>
      <point x="225" y="1126"/>
      <point x="180" y="1122"/>
      <point x="80" y="1093" type="curve"/>
      <point x="80" y="974" type="line"/>
      <point x="228" y="974" type="line"/>
      <point x="228" y="273" type="line" smooth="yes"/>
      <point x="228" y="37"/>
      <point x="344" y="-16"/>
    </contour>
    <contour>
      <point x="441" y="-170" type="move" name="btm"/>
    </contour>
    <contour>
      <point x="377" y="1870" type="move" name="top"/>
    </contour>
  </outline>
</glyph>
<glyph name="u" format="1">
  <advance width="1249"/>
  <unicode hex="0075"/>
  <outline>
    <contour>
      <point x="509" y="-16" type="curve" smooth="yes"/>
      <point x="635" y="-16"/>
      <point x="787" y="44"/>
      <point x="881" y="102" type="curve"/>
      <point x="878" y="151" type="line"/>
      <point x="878" y="72" type="line" smooth="yes"/>
      <point x="878" y="-8"/>
      <point x="919" y="-16"/>
      <point x="988" y="-16" type="curve" smooth="yes"/>
      <point x="1073" y="-16" type="line"/>
      <point x="1073" y="1140" type="line"/>
      <point x="853" y="1140" type="line"/>
      <point x="853" y="245" type="line"/>
      <point x="803" y="212"/>
      <point x="685" y="165"/>
      <point x="599" y="165" type="curve" smooth="yes"/>
      <point x="449" y="165"/>
      <point x="390" y="193"/>
      <point x="390" y="475" type="curve" smooth="yes"/>
      <point x="390" y="1140" type="line"/>
      <point x="170" y="1140" type="line"/>
      <point x="170" y="474" type="line" smooth="yes"/>
      <point x="170" y="181"/>
      <point x="219" y="-16"/>
    </contour>
    <contour>
      <point x="600" y="-170" type="move" name="btm"/>
    </contour>
    <contour>
      <point x="634" y="1700" type="move" name="top"/>
    </contour>
  </outline>
</glyph>
<glyph name="bar" format="1">
  <advance width="855"/>
  <unicode hex="007C"/>
  <outline>
    <contour>
      <point x="326" y="-188" type="line"/>
      <point x="529" y="-188" type="line"/>
      <point x="529" y="1780" type="line"/>
      <point x="326" y="1780" type="line"/>
    </contour>
  </outline>
</glyph>
<glyph name="currency" format="1">
  <advance width="1527"/>
  <unicode hex="00A4"/>
  <outline>
    <contour>
      <point x="764" y="331" type="curve" smooth="yes"/>
      <point x="1009" y="331"/>
      <point x="1207" y="527"/>
      <point x="1207" y="773" type="curve" smooth="yes"/>
      <point x="1207" y="1019"/>
      <point x="1009" y="1215"/>
      <point x="764" y="1215" type="curve" smooth="yes"/>
      <point x="520" y="1215"/>
      <point x="322" y="1019"/>
      <point x="322" y="773" type="curve"/>
      <point x="322" y="527"/>
      <point x="520" y="331"/>
    </contour>
    <contour>
      <point x="765" y="495" type="curve" smooth="yes"/>
      <point x="618" y="495"/>
      <point x="499" y="621"/>
      <point x="499" y="773" type="curve" smooth="yes"/>
      <point x="499" y="925"/>
      <point x="618" y="1050"/>
      <point x="765" y="1050" type="curve" smooth="yes"/>
      <point x="912" y="1050"/>
      <point x="1029" y="925"/>
      <point x="1029" y="773" type="curve" smooth="yes"/>
      <point x="1029" y="621"/>
      <point x="912" y="495"/>
    </contour>
    <contour>
      <point x="427" y="1007" type="line"/>
      <point x="553" y="1133" type="line"/>
      <point x="325" y="1363" type="line"/>
      <point x="199" y="1235" type="line"/>
    </contour>
    <contour>
      <point x="1103" y="1006" type="line"/>
      <point x="1335" y="1238" type="line"/>
      <point x="1208" y="1365" type="line"/>
      <point x="976" y="1134" type="line"/>
    </contour>
    <contour>
      <point x="326" y="181" type="line"/>
      <point x="554" y="410" type="line"/>
      <point x="426" y="536" type="line"/>
      <point x="199" y="308" type="line"/>
    </contour>
    <contour>
      <point x="1204" y="185" type="line"/>
      <point x="1331" y="312" type="line"/>
      <point x="1103" y="541" type="line"/>
      <point x="976" y="414" type="line"/>
    </contour>
  </outline>
</glyph>
<glyph name="logicalnot" format="1">
  <advance width="1470"/>
  <unicode hex="00AC"/>
  <outline>
    <contour>
      <point x="240" y="688" type="line"/>
      <point x="1030" y="688" type="line"/>
      <point x="1030" y="323" type="line"/>
      <point x="1230" y="323" type="line"/>
      <point x="1230" y="852" type="line"/>
      <point x="240" y="852" type="line"/>
    </contour>
  </outline>
</glyph>
<glyph name="degree" format="1">
  <advance width="912"/>
  <unicode hex="00B0"/>
  <outline>
    <contour>
      <point x="116" y="1278" type="curve" smooth="yes"/>
      <point x="116" y="1083"/>
      <point x="268" y="939"/>
      <point x="456" y="939" type="curve" smooth="yes"/>
      <point x="646" y="939"/>
      <point x="796" y="1081"/>
      <point x="796" y="1278" type="curve" smooth="yes"/>
      <point x="796" y="1473"/>
      <point x="645" y="1617"/>
      <point x="456" y="1617" type="curve" smooth="yes"/>
      <point x="266" y="1617"/>
      <point x="116" y="1475"/>
    </contour>
    <contour>
      <point x="272" y="1278" type="curve" smooth="yes"/>
      <point x="272" y="1391"/>
      <point x="354" y="1472"/>
      <point x="456" y="1472" type="curve" smooth="yes"/>
      <point x="558" y="1472"/>
      <point x="641" y="1390"/>
      <point x="641" y="1278" type="curve" smooth="yes"/>
      <point x="641" y="1165"/>
      <point x="558" y="1083"/>
      <point x="456" y="1083" type="curve" smooth="yes"/>
      <point x="354" y="1083"/>
      <point x="272" y="1166"/>
    </contour>
  </outline>
</glyph>
<glyph name="plusminus" format="1">
  <advance width="1393"/>
  <unicode hex="00B1"/>
  <outline>
    <contour>
      <point x="250" y="0" type="line"/>
      <point x="1142" y="0" type="line"/>
      <point x="1142" y="165" type="line"/>
      <point x="250" y="165" type="line"/>
    </contour>
    <component base="plus"/>
  </outline>
</glyph>
<glyph name="ordmasculine" format="1">
  <advance width="1033"/>
  <unicode hex="00BA"/>
  <outline>
    <contour>
      <point x="111" y="1151" type="curve" smooth="yes"/>
      <point x="108" y="864"/>
      <point x="256" y="677"/>
      <point x="511" y="677" type="curve" smooth="yes"/>
      <point x="713" y="677"/>
      <point x="917" y="803"/>
      <point x="922" y="1131" type="curve" smooth="yes"/>
      <point x="926" y="1408"/>
      <point x="787" y="1599"/>
      <point x="533" y="1599" type="curve" smooth="yes"/>
      <point x="340" y="1599"/>
      <point x="116" y="1478"/>
    </contour>
    <contour>
      <point x="319" y="1151" type="curve" smooth="yes"/>
      <point x="319" y="1369"/>
      <point x="405" y="1450"/>
      <point x="522" y="1452" type="curve" smooth="yes"/>
      <point x="647" y="1454"/>
      <point x="714" y="1330"/>
      <point x="714" y="1129" type="curve" smooth="yes"/>
      <point x="714" y="912"/>
      <point x="647" y="827"/>
      <point x="522" y="825" type="curve" smooth="yes"/>
      <point x="395" y="823"/>
      <point x="319" y="951"/>
    </contour>
  </outline>
</glyph>
<glyph name="Eth" format="1">
  <advance width="1472"/>
  <unicode hex="00D0"/>
  <outline>
    <contour>
      <point x="66" y="720" type="line"/>
      <point x="812" y="720" type="line"/>
      <point x="812" y="869" type="line"/>
      <point x="66" y="869" type="line"/>
    </contour>
    <component base="D"/>
  </outline>
</glyph>
<glyph name="Thorn" format="1">
  <advance width="1262"/>
  <unicode hex="00DE"/>
  <outline>
    <contour>
      <point x="417" y="1522" type="line"/>
      <point x="194" y="1522" type="line"/>
      <point x="194" y="0" type="line"/>
      <point x="417" y="0" type="line"/>
    </contour>
    <contour>
      <point x="401" y="293" type="line"/>
      <point x="440" y="292"/>
      <point x="503" y="285"/>
      <point x="601" y="285" type="curve" smooth="yes"/>
      <point x="980" y="285"/>
      <point x="1182" y="472"/>
      <point x="1182" y="793" type="curve" smooth="yes"/>
      <point x="1182" y="1110"/>
      <point x="996" y="1259"/>
      <point x="650" y="1259" type="curve" smooth="yes"/>
      <point x="528" y="1259"/>
      <point x="416" y="1244"/>
      <point x="325" y="1243" type="curve"/>
      <point x="401" y="1078" type="line"/>
      <point x="455" y="1093"/>
      <point x="517" y="1097"/>
      <point x="576" y="1099" type="curve" smooth="yes"/>
      <point x="835" y="1107"/>
      <point x="960" y="1011"/>
      <point x="960" y="790" type="curve" smooth="yes"/>
      <point x="960" y="499"/>
      <point x="780" y="447"/>
      <point x="579" y="447" type="curve" smooth="yes"/>
      <point x="524" y="447"/>
      <point x="468" y="448"/>
      <point x="401" y="458" type="curve"/>
    </contour>
  </outline>
</glyph>
<glyph name="jdotless" format="1">
  <advance width="574"/>
  <unicode hex="0237"/>
  <outline>
    <contour>
      <point x="-79" y="-494" type="line"/>
      <point x="-64" y="-503"/>
      <point x="29" y="-507"/>
      <point x="60" y="-507" type="curve" smooth="yes"/>
      <point x="287" y="-507"/>
      <point x="413" y="-356"/>
      <point x="413" y="37" type="curve" smooth="yes"/>
      <point x="413" y="1138" type="line"/>
      <point x="193" y="1138" type="line"/>
      <point x="193" y="-48" type="line" smooth="yes"/>
      <point x="193" y="-248"/>
      <point x="158" y="-353"/>
      <point x="38" y="-353" type="curve" smooth="yes"/>
      <point x="4" y="-353"/>
      <point x="-58" y="-341"/>
      <point x="-79" y="-331" type="curve"/>
    </contour>
    <contour>
      <point x="307" y="1700" type="move" name="top"/>
    </contour>
  </outline>
</glyph>
<glyph name="circumflex" format="1">
  <advance width="836"/>
  <unicode hex="02C6"/>
  <outline>
    <contour>
      <point x="173" y="1293" type="line"/>
      <point x="422" y="1516" type="line"/>
      <point x="654" y="1294" type="line"/>
      <point x="789" y="1350" type="line"/>
      <point x="521" y="1682" type="line"/>
      <point x="323" y="1682" type="line"/>
      <point x="47" y="1349" type="line"/>
    </contour>
    <contour>
      <point x="421" y="1700" type="move" name="_top"/>
    </contour>
  </outline>
</glyph>
<glyph name="hungarumlaut" format="1">
  <advance width="1035"/>
  <unicode hex="02DD"/>
  <outline>
    <contour>
      <point x="145" y="1319" type="line"/>
      <point x="221" y="1370"/>
      <point x="402" y="1582"/>
      <point x="463" y="1687" type="curve"/>
      <point x="301" y="1798" type="line"/>
      <point x="42" y="1390" type="line"/>
    </contour>
    <contour>
      <point x="642" y="1319" type="line"/>
      <point x="723" y="1367"/>
      <point x="911" y="1582"/>
      <point x="963" y="1679" type="curve"/>
      <point x="808" y="1789" type="line"/>
      <point x="541" y="1390" type="line"/>
    </contour>
    <contour>
      <point x="415" y="1672" type="move" name="_top"/>
    </contour>
  </outline>
</glyph>
<glyph name="guilsinglleft" format="1">
  <advance width="1204"/>
  <unicode hex="2039"/>
  <outline>
    <contour>
      <point x="245" y="519" type="line"/>
      <point x="888" y="104" type="line"/>
      <point x="945" y="263" type="line"/>
      <point x="405" y="655" type="line"/>
      <point x="405" y="574" type="line"/>
      <point x="945" y="970" type="line"/>
      <point x="888" y="1133" type="line"/>
      <point x="245" y="703" type="line"/>
    </contour>
  </outline>
</glyph>
<glyph name="euro" format="1">
  <advance width="1505"/>
  <unicode hex="20AC"/>
  <outline>
    <contour>
      <point x="926" y="-28" type="curve" smooth="yes"/>
      <point x="1220" y="-28"/>
      <point x="1283" y="46"/>
      <point x="1371" y="60" type="curve"/>
      <point x="1311" y="225" type="line"/>
      <point x="1238" y="173"/>
      <point x="1100" y="132"/>
      <point x="955" y="132" type="curve" smooth="yes"/>
      <point x="618" y="132"/>
      <point x="545" y="429"/>
      <point x="545" y="784" type="curve" smooth="yes"/>
      <point x="545" y="1166"/>
      <point x="711" y="1372"/>
      <point x="961" y="1371" type="curve" smooth="yes"/>
      <point x="1142" y="1370"/>
      <point x="1210" y="1345"/>
      <point x="1286" y="1303" type="curve"/>
      <point x="1339" y="1477" type="line"/>
      <point x="1257" y="1496"/>
      <point x="1181" y="1546"/>
      <point x="967" y="1538" type="curve" smooth="yes"/>
      <point x="561" y="1523"/>
      <point x="306" y="1225"/>
      <point x="306" y="720" type="curve" smooth="yes"/>
      <point x="306" y="276"/>
      <point x="517" y="-28"/>
    </contour>
    <contour>
      <point x="146" y="883" type="line"/>
      <point x="1101" y="883" type="line"/>
      <point x="1101" y="1026" type="line"/>
      <point x="146" y="1026" type="line"/>
    </contour>
    <contour>
      <point x="114" y="511" type="line"/>
      <point x="1067" y="511" type="line"/>
      <point x="1067" y="654" type="line"/>
      <point x="114" y="654" type="line"/>
    </contour>
  </outline>
</glyph>
<glyph name="literSign" format="1">
  <advance width="1240"/>
  <unicode hex="2113"/>
  <outline>
    <contour>
      <point x="173" y="32" type="line"/>
      <point x="647" y="423"/>
      <point x="1098" y="936"/>
      <point x="1098" y="1430" type="curve" smooth="yes"/>
      <point x="1098" y="1578"/>
      <point x="1036" y="1683"/>
      <point x="902" y="1683" type="curve" smooth="yes"/>
      <point x="574" y="1683"/>
      <point x="300" y="1067"/>
      <point x="300" y="496" type="curve" smooth="yes"/>
      <point x="300" y="162"/>
      <point x="408" y="-29"/>
      <point x="615" y="-29" type="curve" smooth="yes"/>
      <point x="830" y="-29"/>
      <point x="991" y="281"/>
      <point x="1038" y="433" type="curve"/>
      <point x="859" y="465" type="line"/>
      <point x="801" y="297"/>
      <point x="710" y="143"/>
      <point x="619" y="143" type="curve" smooth="yes"/>
      <point x="553" y="143"/>
      <point x="477" y="222"/>
      <point x="477" y="488" type="curve" smooth="yes"/>
      <point x="477" y="892"/>
      <point x="705" y="1522"/>
      <point x="871" y="1522" type="curve" smooth="yes"/>
      <point x="904" y="1522"/>
      <point x="916" y="1461"/>
      <point x="916" y="1429" type="curve" smooth="yes"/>
      <point x="916" y="1074"/>
      <point x="585" y="533"/>
      <point x="0" y="148" type="curve"/>
    </contour>
    <contour>
      <point x="446" y="-170" type="move" name="btm"/>
    </contour>
    <contour>
      <point x="449" y="1700" type="move" name="top"/>
    </contour>
  </outline>
</glyph>
<glyph name="caron.cap" format="1">
  <advance width="759"/>
  <outline>
    <contour>
      <point x="294" y="1670" type="line"/>
      <point x="491" y="1670" type="line"/>
      <point x="733" y="1933" type="line"/>
      <point x="613" y="1990" type="line"/>
      <point x="392" y="1816" type="line"/>
      <point x="176" y="1990" type="line"/>
      <point x="48" y="1930" type="line"/>
    </contour>
    <contour>
      <point x="391" y="1700" type="move" name="_top"/>
    </contour>
  </outline>
</glyph>
<glyph name="dieresis.cap" format="1">
  <advance width="893"/>
  <outline>
    <contour>
      <point x="187" y="1667" type="curve" smooth="yes"/>
      <point x="271" y="1667"/>
      <point x="347" y="1729"/>
      <point x="347" y="1821" type="curve" smooth="yes"/>
      <point x="347" y="1896"/>
      <point x="303" y="1955"/>
      <point x="209" y="1955" type="curve" smooth="yes"/>
      <point x="129" y="1955"/>
      <point x="50" y="1888"/>
      <point x="50" y="1800" type="curve" smooth="yes"/>
      <point x="50" y="1718"/>
      <point x="113" y="1667"/>
    </contour>
    <contour>
      <point x="683" y="1667" type="curve" smooth="yes"/>
      <point x="767" y="1667"/>
      <point x="843" y="1729"/>
      <point x="843" y="1821" type="curve" smooth="yes"/>
      <point x="843" y="1896"/>
      <point x="799" y="1955"/>
      <point x="705" y="1955" type="curve" smooth="yes"/>
      <point x="626" y="1955"/>
      <point x="546" y="1888"/>
      <point x="546" y="1800" type="curve" smooth="yes"/>
      <point x="546" y="1718"/>
      <point x="609" y="1667"/>
    </contour>
    <contour>
      <point x="446" y="1700" type="move" name="_top"/>
    </contour>
  </outline>
</glyph>
<glyph name="grave.cap" format="1">
  <advance width="597"/>
  <outline>
    <contour>
      <point x="539" y="1665" type="line"/>
      <point x="532" y="1671"/>
      <point x="201" y="1967"/>
      <point x="196" y="1980" type="curve"/>
      <point x="50" y="1847" type="line"/>
      <point x="127" y="1760"/>
      <point x="350" y="1607"/>
      <point x="447" y="1573" type="curve"/>
    </contour>
    <contour>
      <point x="410" y="1700" type="move" name="_top"/>
    </contour>
  </outline>
</glyph>
<glyph name="tilde.cap" format="1">
  <advance width="927"/>
  <outline>
    <contour>
      <point x="132" y="1703" type="line"/>
      <point x="173" y="1748"/>
      <point x="235" y="1805"/>
      <point x="307" y="1805" type="curve" smooth="yes"/>
      <point x="411" y="1805"/>
      <point x="442" y="1661"/>
      <point x="600" y="1661" type="curve" smooth="yes"/>
      <point x="706" y="1661"/>
      <point x="834" y="1741"/>
      <point x="881" y="1855" type="curve"/>
      <point x="795" y="1926" type="line"/>
      <point x="754" y="1882"/>
      <point x="693" y="1827"/>
      <point x="620" y="1827" type="curve" smooth="yes"/>
      <point x="518" y="1827"/>
      <point x="487" y="1966"/>
      <point x="329" y="1966" type="curve" smooth="yes"/>
      <point x="222" y="1966"/>
      <point x="94" y="1885"/>
      <point x="47" y="1771" type="curve"/>
    </contour>
    <contour>
      <point x="463" y="1700" type="move" name="_top"/>
    </contour>
  </outline>
</glyph>
